<svg width="221" height="295" viewBox="0 0 221 295" fill="none" xmlns="http://www.w3.org/2000/svg">
<path d="M180.138 1.37347C179.62 0.397882 178.409 0.0269144 177.434 0.544892C176.458 1.06287 176.087 2.27364 176.605 3.24923L180.138 1.37347ZM215.687 89.9287L213.73 90.3429L215.687 89.9287ZM212.479 136.794L210.721 135.841L212.479 136.794ZM156.21 165.797L156.159 167.797L156.21 165.797ZM93.381 139.813L91.6966 140.891L93.381 139.813ZM90.7644 99.5955L92.5473 100.502L90.7644 99.5955ZM131.506 90.7662L132.086 88.8523L131.506 90.7662ZM167.418 131.933L169.34 131.38L167.418 131.933ZM161.324 211.565L159.392 211.048L161.324 211.565ZM145.272 240.11L143.734 238.831L145.272 240.11ZM105.863 267.787L105.117 265.932L105.863 267.787ZM44.2806 278.772L44.0424 276.786L44.2806 278.772ZM0.505719 282L19.8551 294.607L21.0983 271.546L0.505719 282ZM4.09829 284.196C5.20228 284.232 6.12642 283.366 6.16243 282.262C6.19845 281.158 5.33268 280.234 4.2287 280.198L4.09829 284.196ZM11.4212 280.175C10.3173 280.214 9.45363 281.14 9.49208 282.244C9.53054 283.348 10.4566 284.211 11.5605 284.173L11.4212 280.175ZM18.9679 283.732C20.0688 283.642 20.8886 282.677 20.799 281.576C20.7094 280.475 19.7443 279.655 18.6434 279.745L18.9679 283.732ZM25.878 279.038C24.7802 279.16 23.9894 280.149 24.1117 281.247C24.234 282.345 25.2231 283.136 26.3208 283.014L25.878 279.038ZM33.6266 282.135C34.7224 281.997 35.4983 280.996 35.3596 279.9C35.2208 278.804 34.22 278.028 33.1242 278.167L33.6266 282.135ZM40.3939 277.237C39.2981 277.376 38.5222 278.376 38.6609 279.472C38.7996 280.568 39.8003 281.344 40.8962 281.205L40.3939 277.237ZM48.3969 280.313C49.4949 280.193 50.2873 279.205 50.1668 278.107C50.0464 277.009 49.0586 276.217 47.9606 276.337L48.3969 280.313ZM55.786 275.527C54.6869 275.637 53.8847 276.616 53.9942 277.715C54.1037 278.815 55.0835 279.617 56.1826 279.507L55.786 275.527ZM63.999 278.721C65.0976 278.607 65.8957 277.624 65.7814 276.525C65.6672 275.426 64.684 274.628 63.5853 274.743L63.999 278.721ZM71.3454 273.871C70.2491 274.006 69.47 275.004 69.6052 276.1C69.7404 277.197 70.7387 277.976 71.8349 277.841L71.3454 273.871ZM79.6743 276.748C80.7653 276.575 81.5099 275.551 81.3373 274.46C81.1647 273.369 80.1404 272.624 79.0494 272.797L79.6743 276.748ZM86.6725 271.408C85.5912 271.634 84.8978 272.694 85.1235 273.775C85.3493 274.856 86.4089 275.55 87.4901 275.324L86.6725 271.408ZM95.2401 273.459C96.305 273.166 96.9309 272.065 96.6379 271C96.3449 269.935 95.244 269.309 94.179 269.602L95.2401 273.459ZM101.522 267.294C100.482 267.665 99.9391 268.809 100.31 269.849C100.681 270.89 101.825 271.432 102.865 271.062L101.522 267.294ZM110.406 268.044C111.417 267.599 111.876 266.419 111.431 265.408C110.986 264.397 109.806 263.938 108.795 264.383L110.406 268.044ZM115.973 260.924C114.996 261.439 114.621 262.648 115.135 263.626C115.65 264.603 116.859 264.978 117.837 264.464L115.973 260.924ZM124.996 260.338C125.931 259.75 126.211 258.515 125.623 257.58C125.034 256.645 123.799 256.365 122.864 256.953L124.996 260.338ZM129.401 252.448C128.519 253.113 128.344 254.367 129.009 255.249C129.674 256.131 130.928 256.306 131.81 255.641L129.401 252.448ZM138.198 250.363C139.017 249.621 139.079 248.356 138.338 247.538C137.596 246.719 136.332 246.656 135.513 247.398L138.198 250.363ZM141.13 241.814C140.384 242.629 140.439 243.894 141.254 244.64C142.069 245.386 143.334 245.33 144.08 244.515L141.13 241.814ZM149.441 238.133C150.121 237.263 149.968 236.006 149.099 235.325C148.229 234.644 146.972 234.797 146.291 235.667L149.441 238.133ZM151.03 229.112C150.422 230.035 150.678 231.275 151.6 231.883C152.522 232.49 153.763 232.235 154.37 231.313L151.03 229.112ZM158.647 223.998C159.148 223.014 158.756 221.81 157.772 221.309C156.788 220.807 155.584 221.199 155.082 222.183L158.647 223.998ZM158.222 214.851C157.859 215.895 158.411 217.035 159.454 217.398C160.497 217.761 161.637 217.209 162 216.166L158.222 214.851ZM164.295 208.166C164.575 207.098 163.937 206.004 162.868 205.724C161.8 205.443 160.706 206.082 160.426 207.15L164.295 208.166ZM162.416 199.343C162.152 200.416 162.808 201.499 163.881 201.763C164.953 202.027 166.037 201.371 166.3 200.298L162.416 199.343ZM168.152 192.376C168.39 191.297 167.708 190.23 166.63 189.993C165.551 189.755 164.484 190.437 164.246 191.515L168.152 192.376ZM165.851 183.656C165.648 184.741 166.364 185.786 167.45 185.988C168.536 186.191 169.58 185.475 169.783 184.389L165.851 183.656ZM171.12 176.33C171.278 175.236 170.519 174.222 169.426 174.065C168.332 173.908 167.319 174.666 167.161 175.76L171.12 176.33ZM168.103 167.831C168.002 168.931 168.812 169.905 169.912 170.006C171.011 170.107 171.985 169.298 172.087 168.198L168.103 167.831ZM172.594 160.004C172.628 158.9 171.76 157.978 170.656 157.945C169.551 157.912 168.63 158.78 168.596 159.884L172.594 160.004ZM168.551 151.946C168.599 153.05 169.533 153.905 170.636 153.857C171.74 153.809 172.596 152.876 172.548 151.772L168.551 151.946ZM171.843 143.546C171.701 142.451 170.697 141.678 169.602 141.821C168.507 141.963 167.734 142.967 167.877 144.062L171.843 143.546ZM166.485 136.298C166.734 137.374 167.808 138.045 168.884 137.796C169.96 137.547 170.631 136.473 170.382 135.396L166.485 136.298ZM168.237 127.897C167.876 126.853 166.737 126.299 165.693 126.66C164.649 127.021 164.095 128.16 164.456 129.204L168.237 127.897ZM161.88 122.805C162.343 123.808 163.531 124.246 164.534 123.784C165.537 123.321 165.975 122.133 165.513 121.13L161.88 122.805ZM162.141 114.664C161.583 113.711 160.358 113.391 159.404 113.949C158.451 114.507 158.131 115.732 158.689 116.686L162.141 114.664ZM154.911 110.922C155.563 111.813 156.815 112.007 157.706 111.354C158.597 110.702 158.79 109.45 158.138 108.559L154.911 110.922ZM153.495 102.9C152.747 102.088 151.482 102.035 150.669 102.783C149.857 103.531 149.804 104.797 150.552 105.609L153.495 102.9ZM145.616 100.872C146.461 101.584 147.723 101.476 148.435 100.631C149.146 99.7861 149.038 98.5244 148.193 97.8129L145.616 100.872ZM142.219 93.4708C141.28 92.89 140.047 93.1808 139.466 94.1203C138.886 95.0598 139.176 96.2923 140.116 96.8731L142.219 93.4708ZM134.098 93.8041C135.121 94.2197 136.288 93.727 136.703 92.7036C137.119 91.6802 136.626 90.5137 135.603 90.098L134.098 93.8041ZM128.26 87.9971C127.169 87.8191 126.141 88.5585 125.963 89.6486C125.785 90.7387 126.525 91.7668 127.615 91.9448L128.26 87.9971ZM120.573 91.3167C121.678 91.3475 122.598 90.4773 122.628 89.3732C122.659 88.2691 121.789 87.349 120.685 87.3183L120.573 91.3167ZM113.142 87.5131C112.041 87.6014 111.22 88.5654 111.308 89.6665C111.396 90.7675 112.36 91.5886 113.462 91.5004L113.142 87.5131ZM106.456 92.4931C107.537 92.2645 108.228 91.2032 107.999 90.1226C107.771 89.0419 106.709 88.3511 105.629 88.5796L106.456 92.4931ZM98.2512 90.8522C97.2365 91.2888 96.7679 92.4652 97.2045 93.4798C97.6411 94.4945 98.8175 94.9631 99.8321 94.5265L98.2512 90.8522ZM94.343 98.058C95.1212 97.2741 95.1166 96.0078 94.3327 95.2296C93.5488 94.4514 92.2825 94.456 91.5043 95.2399L94.343 98.058ZM87.4597 102.061C87.0525 103.088 87.5548 104.25 88.5816 104.658C89.6084 105.065 90.7708 104.563 91.178 103.536L87.4597 102.061ZM89.3091 109.917C89.5208 108.833 88.8135 107.782 87.7294 107.57C86.6453 107.359 85.5949 108.066 85.3832 109.15L89.3091 109.917ZM84.6287 116.489C84.6141 117.594 85.4976 118.501 86.6021 118.515C87.7065 118.53 88.6137 117.647 88.6283 116.542L84.6287 116.489ZM89.1191 123.2C88.9441 122.109 87.9181 121.367 86.8275 121.542C85.7368 121.717 84.9946 122.743 85.1696 123.833L89.1191 123.2ZM86.9357 130.97C87.2886 132.017 88.4232 132.579 89.4699 132.226C90.5166 131.874 91.0789 130.739 90.726 129.692L86.9357 130.97ZM93.3752 135.841C92.8572 134.866 91.6464 134.495 90.6708 135.013C89.6953 135.531 89.3243 136.741 89.8423 137.717L93.3752 135.841ZM94.4326 144.641C95.1355 145.493 96.396 145.614 97.2481 144.911C98.1002 144.208 98.2211 142.948 97.5182 142.096L94.4326 144.641ZM103.514 147.946C102.651 147.257 101.392 147.399 100.703 148.262C100.014 149.125 100.155 150.383 101.018 151.073L103.514 147.946ZM108.599 156.144C109.562 156.686 110.781 156.344 111.323 155.382C111.864 154.419 111.523 153.199 110.56 152.658L108.599 156.144ZM118.272 156.359C117.249 155.941 116.082 156.431 115.664 157.454C115.247 158.477 115.737 159.644 116.76 160.062L118.272 156.359ZM125.258 163.034C126.317 163.349 127.43 162.745 127.744 161.686C128.059 160.627 127.455 159.514 126.396 159.2L125.258 163.034ZM134.776 161.305C133.695 161.079 132.636 161.773 132.41 162.854C132.184 163.935 132.877 164.995 133.959 165.221L134.776 161.305ZM142.785 166.725C143.88 166.871 144.886 166.102 145.032 165.008C145.178 163.913 144.409 162.907 143.315 162.76L142.785 166.725ZM151.939 163.606C150.837 163.537 149.887 164.375 149.818 165.477C149.749 166.58 150.587 167.529 151.689 167.598L151.939 163.606ZM160.434 167.77C161.538 167.729 162.399 166.8 162.357 165.696C162.316 164.593 161.387 163.731 160.284 163.773L160.434 167.77ZM168.302 162.986C167.211 163.159 166.466 164.183 166.638 165.274C166.811 166.365 167.835 167.11 168.926 166.937L168.302 162.986ZM177.256 165.123C178.32 164.827 178.942 163.724 178.646 162.66C178.349 161.596 177.246 160.974 176.182 161.27L177.256 165.123ZM183.807 158.657C182.785 159.076 182.296 160.245 182.716 161.266C183.135 162.288 184.303 162.777 185.325 162.358L183.807 158.657ZM193.015 158.632C193.976 158.088 194.315 156.868 193.771 155.906C193.227 154.945 192.007 154.606 191.046 155.15L193.015 158.632ZM197.74 150.74C196.863 151.411 196.696 152.666 197.367 153.543C198.038 154.421 199.293 154.588 200.171 153.917L197.74 150.74ZM206.585 148.186C207.348 147.387 207.319 146.121 206.521 145.358C205.722 144.595 204.456 144.624 203.693 145.423L206.585 148.186ZM208.672 139.234C208.058 140.152 208.305 141.394 209.223 142.008C210.141 142.622 211.383 142.375 211.997 141.457L208.672 139.234ZM216.057 133.98C216.49 132.964 216.018 131.789 215.002 131.355C213.987 130.922 212.812 131.394 212.378 132.41L216.057 133.98ZM214.751 125.144C214.496 126.219 215.162 127.296 216.236 127.551C217.311 127.805 218.389 127.14 218.643 126.065L214.751 125.144ZM219.951 117.896C220.05 116.796 219.239 115.824 218.138 115.725C217.038 115.625 216.066 116.437 215.967 117.537L219.951 117.896ZM216.205 109.777C216.231 110.881 217.148 111.755 218.252 111.729C219.356 111.702 220.23 110.786 220.204 109.681L216.205 109.777ZM219.631 101.531C219.507 100.433 218.517 99.6444 217.419 99.7687C216.322 99.8929 215.533 100.883 215.657 101.981L219.631 101.531ZM214.495 94.2097C214.693 95.2962 215.735 96.0158 216.822 95.8169C217.909 95.618 218.628 94.5759 218.429 93.4894L214.495 94.2097ZM216.762 85.5812C216.507 84.5063 215.43 83.8411 214.355 84.0954C213.28 84.3498 212.615 85.4273 212.869 86.5022L216.762 85.5812ZM210.882 78.8842C211.184 79.9465 212.291 80.5624 213.353 80.2599C214.416 79.9573 215.031 78.8508 214.729 77.7885L210.882 78.8842ZM212.362 70.0968C212.015 69.048 210.884 68.4785 209.835 68.8249C208.787 69.1713 208.217 70.3024 208.564 71.3513L212.362 70.0968ZM205.947 63.9086C206.332 64.9438 207.484 65.4705 208.519 65.0851C209.554 64.6996 210.081 63.548 209.696 62.5129L205.947 63.9086ZM206.767 55.0357C206.347 54.0139 205.179 53.5255 204.157 53.9449C203.135 54.3643 202.647 55.5327 203.066 56.5545L206.767 55.0357ZM199.957 49.2837C200.406 50.2932 201.587 50.7482 202.597 50.2999C203.606 49.8517 204.061 48.6699 203.613 47.6604L199.957 49.2837ZM200.272 40.3783C199.8 39.3797 198.608 38.9528 197.609 39.4249C196.611 39.897 196.184 41.0892 196.656 42.0878L200.272 40.3783ZM193.197 34.9552C193.688 35.9446 194.888 36.3488 195.878 35.8579C196.867 35.3669 197.272 34.1668 196.781 33.1774L193.197 34.9552ZM193.174 26.0441C192.669 25.0617 191.464 24.6747 190.481 25.1797C189.499 25.6846 189.112 26.8904 189.617 27.8728L193.174 26.0441ZM185.948 20.8249C186.462 21.8024 187.672 22.1779 188.649 21.6636C189.627 21.1493 190.002 19.9399 189.488 18.9624L185.948 20.8249ZM185.754 11.9154C185.235 10.9404 184.024 10.5709 183.049 11.09C182.074 11.6092 181.705 12.8204 182.224 13.7953L185.754 11.9154ZM178.477 6.76789C178.996 7.74269 180.208 8.1118 181.183 7.59234C182.157 7.07287 182.527 5.86153 182.007 4.88673L178.477 6.76789ZM11.5605 284.173C14.0163 284.087 16.4919 283.933 18.9679 283.732L18.6434 279.745C16.2168 279.942 13.804 280.092 11.4212 280.175L11.5605 284.173ZM26.3208 283.014C28.7767 282.74 31.219 282.44 33.6266 282.135L33.1242 278.167C30.7256 278.471 28.3055 278.768 25.878 279.038L26.3208 283.014ZM40.8962 281.205C42.119 281.05 43.3271 280.9 44.5187 280.757L44.0424 276.786C42.8394 276.93 41.6221 277.081 40.3939 277.237L40.8962 281.205ZM44.5187 280.757C45.813 280.602 47.1056 280.455 48.3969 280.313L47.9606 276.337C46.6583 276.48 45.3522 276.629 44.0424 276.786L44.5187 280.757ZM56.1826 279.507C58.7912 279.247 61.4006 278.991 63.999 278.721L63.5853 274.743C60.9982 275.012 58.4027 275.266 55.786 275.527L56.1826 279.507ZM71.8349 277.841C74.4522 277.518 77.0657 277.16 79.6743 276.748L79.0494 272.797C76.4951 273.201 73.9279 273.552 71.3454 273.871L71.8349 277.841ZM87.4901 275.324C90.0776 274.784 92.661 274.169 95.2401 273.459L94.179 269.602C91.6887 270.287 89.187 270.883 86.6725 271.408L87.4901 275.324ZM102.865 271.062C104.115 270.616 105.363 270.144 106.609 269.643L105.117 265.932C103.921 266.413 102.723 266.866 101.522 267.294L102.865 271.062ZM106.609 269.643C107.886 269.129 109.152 268.597 110.406 268.044L108.795 264.383C107.581 264.918 106.355 265.434 105.117 265.932L106.609 269.643ZM117.837 264.464C120.28 263.177 122.669 261.804 124.996 260.338L122.864 256.953C120.628 258.362 118.329 259.683 115.973 260.924L117.837 264.464ZM131.81 255.641C134.011 253.982 136.142 252.224 138.198 250.363L135.513 247.398C133.549 249.176 131.51 250.858 129.401 252.448L131.81 255.641ZM144.08 244.515C145.01 243.5 145.92 242.458 146.809 241.389L143.734 238.831C142.886 239.85 142.017 240.845 141.13 241.814L144.08 244.515ZM146.809 241.389C147.704 240.314 148.582 239.229 149.441 238.133L146.291 235.667C145.46 236.728 144.607 237.782 143.734 238.831L146.809 241.389ZM154.37 231.313C155.924 228.955 157.361 226.524 158.647 223.998L155.082 222.183C153.872 224.56 152.512 226.862 151.03 229.112L154.37 231.313ZM162 216.166C162.464 214.833 162.884 213.472 163.256 212.082L159.392 211.048C159.046 212.341 158.655 213.608 158.222 214.851L162 216.166ZM163.256 212.082C163.603 210.786 163.95 209.481 164.295 208.166L160.426 207.15C160.083 208.457 159.737 209.757 159.392 211.048L163.256 212.082ZM166.3 200.298C166.943 197.683 167.565 195.04 168.152 192.376L164.246 191.515C163.667 194.142 163.053 196.754 162.416 199.343L166.3 200.298ZM169.783 184.389C170.281 181.716 170.732 179.027 171.12 176.33L167.161 175.76C166.781 178.396 166.34 181.03 165.851 183.656L169.783 184.389ZM172.087 168.198C172.338 165.468 172.512 162.734 172.594 160.004L168.596 159.884C168.517 162.525 168.348 165.176 168.103 167.831L172.087 168.198ZM172.548 151.772C172.428 149.018 172.198 146.274 171.843 143.546L167.877 144.062C168.216 146.668 168.436 149.298 168.551 151.946L172.548 151.772ZM170.382 135.396C170.07 134.051 169.724 132.712 169.34 131.38L165.496 132.487C165.86 133.749 166.189 135.02 166.485 136.298L170.382 135.396ZM169.34 131.38C169.006 130.221 168.638 129.059 168.237 127.897L164.456 129.204C164.835 130.3 165.182 131.396 165.496 132.487L169.34 131.38ZM165.513 121.13C164.503 118.94 163.377 116.776 162.141 114.664L158.689 116.686C159.859 118.683 160.924 120.731 161.88 122.805L165.513 121.13ZM158.138 108.559C156.694 106.588 155.145 104.692 153.495 102.9L150.552 105.609C152.096 107.286 153.551 109.065 154.911 110.922L158.138 108.559ZM148.193 97.8129C146.302 96.2201 144.309 94.7625 142.219 93.4708L140.116 96.8731C142.029 98.0555 143.864 99.3967 145.616 100.872L148.193 97.8129ZM135.603 90.098C134.453 89.6311 133.281 89.2145 132.086 88.8523L130.925 92.6802C132 93.0062 133.058 93.3819 134.098 93.8041L135.603 90.098ZM132.086 88.8523C130.974 88.515 129.678 88.2287 128.26 87.9971L127.615 91.9448C128.909 92.1561 130.024 92.407 130.925 92.6802L132.086 88.8523ZM120.685 87.3183C118.274 87.2511 115.719 87.3067 113.142 87.5131L113.462 91.5004C115.888 91.3059 118.3 91.2534 120.573 91.3167L120.685 87.3183ZM105.629 88.5796C103.045 89.1259 100.536 89.8692 98.2512 90.8522L99.8321 94.5265C101.822 93.6705 104.069 92.998 106.456 92.4931L105.629 88.5796ZM91.5043 95.2399C90.4942 96.2574 89.6348 97.4038 88.9814 98.6893L92.5473 100.502C92.992 99.6267 93.5932 98.8133 94.343 98.058L91.5043 95.2399ZM88.9814 98.6893C88.4177 99.7985 87.9109 100.924 87.4597 102.061L91.178 103.536C91.5838 102.512 92.0398 101.5 92.5473 100.502L88.9814 98.6893ZM85.3832 109.15C84.9083 111.583 84.661 114.039 84.6287 116.489L88.6283 116.542C88.6576 114.326 88.8812 112.109 89.3091 109.917L85.3832 109.15ZM85.1696 123.833C85.5584 126.256 86.1513 128.644 86.9357 130.97L90.726 129.692C90.0114 127.573 89.4722 125.4 89.1191 123.2L85.1696 123.833ZM89.8423 137.717C90.4164 138.798 91.035 139.857 91.6966 140.891L95.0655 138.734C94.4625 137.792 93.8986 136.827 93.3752 135.841L89.8423 137.717ZM91.6966 140.891C92.5338 142.199 93.4487 143.448 94.4326 144.641L97.5182 142.096C96.6324 141.022 95.8128 139.902 95.0655 138.734L91.6966 140.891ZM101.018 151.073C103.371 152.95 105.917 154.635 108.599 156.144L110.56 152.658C108.043 151.242 105.679 149.675 103.514 147.946L101.018 151.073ZM116.76 160.062C119.527 161.192 122.375 162.178 125.258 163.034L126.396 159.2C123.627 158.378 120.905 157.434 118.272 156.359L116.76 160.062ZM133.959 165.221C136.924 165.84 139.882 166.337 142.785 166.725L143.315 162.76C140.503 162.385 137.641 161.904 134.776 161.305L133.959 165.221ZM151.689 167.598C153.213 167.694 154.706 167.759 156.159 167.797L156.262 163.798C154.858 163.762 153.415 163.698 151.939 163.606L151.689 167.598ZM156.159 167.797C157.573 167.833 159 167.824 160.434 167.77L160.284 163.773C158.932 163.824 157.59 163.832 156.262 163.798L156.159 167.797ZM168.926 166.937C171.716 166.496 174.503 165.891 177.256 165.123L176.182 161.27C173.577 161.997 170.94 162.569 168.302 162.986L168.926 166.937ZM185.325 162.358C187.964 161.275 190.538 160.033 193.015 158.632L191.046 155.15C188.72 156.465 186.297 157.635 183.807 158.657L185.325 162.358ZM200.171 153.917C202.454 152.17 204.605 150.259 206.585 148.186L203.693 145.423C201.863 147.338 199.869 149.112 197.74 150.74L200.171 153.917ZM211.997 141.457C212.797 140.26 213.545 139.024 214.237 137.748L210.721 135.841C210.089 137.006 209.404 138.137 208.672 139.234L211.997 141.457ZM214.237 137.748C214.908 136.512 215.513 135.255 216.057 133.98L212.378 132.41C211.882 133.573 211.331 134.717 210.721 135.841L214.237 137.748ZM218.643 126.065C219.28 123.376 219.703 120.644 219.951 117.896L215.967 117.537C215.735 120.115 215.339 122.658 214.751 125.144L218.643 126.065ZM220.204 109.681C220.139 106.951 219.936 104.225 219.631 101.531L215.657 101.981C215.95 104.573 216.143 107.179 216.205 109.777L220.204 109.681ZM218.429 93.4894C218.184 92.1497 217.92 90.8237 217.643 89.5146L213.73 90.3429C214 91.6191 214.256 92.9091 214.495 94.2097L218.429 93.4894ZM217.643 89.5146C217.364 88.1964 217.07 86.8854 216.762 85.5812L212.869 86.5022C213.171 87.7761 213.458 89.0562 213.73 90.3429L217.643 89.5146ZM214.729 77.7885C213.992 75.1999 213.201 72.6369 212.362 70.0968L208.564 71.3513C209.386 73.8414 210.161 76.3515 210.882 78.8842L214.729 77.7885ZM209.696 62.5129C208.76 60.001 207.782 57.5095 206.767 55.0357L203.066 56.5545C204.066 58.9904 205.028 61.4408 205.947 63.9086L209.696 62.5129ZM203.613 47.6604C202.529 45.2191 201.413 42.7926 200.272 40.3783L196.656 42.0878C197.785 44.4765 198.887 46.8742 199.957 49.2837L203.613 47.6604ZM196.781 33.1774C195.597 30.7915 194.393 28.4145 193.174 26.0441L189.617 27.8728C190.828 30.2292 192.023 32.589 193.197 34.9552L196.781 33.1774ZM189.488 18.9624C188.251 16.6109 187.004 14.2625 185.754 11.9154L182.224 13.7953C183.472 16.1397 184.715 18.4817 185.948 20.8249L189.488 18.9624ZM182.007 4.88673C181.383 3.71621 180.76 2.5453 180.138 1.37347L176.605 3.24923C177.228 4.42346 177.853 5.5963 178.477 6.76789L182.007 4.88673Z" fill="#FBBF24"/>
</svg>
