<svg width="153" height="153" viewBox="0 0 153 153" fill="none" xmlns="http://www.w3.org/2000/svg">
<path id="Star 1" d="M73.273 2.43477C74.8393 -0.07412 78.4927 -0.074116 80.059 2.43477L84.8016 10.0311C86.0754 12.0714 88.8488 12.5342 90.716 11.0181L97.6681 5.3732C99.9642 3.50885 103.42 4.6951 104.086 7.57664L106.106 16.3013C106.648 18.6446 109.121 19.9829 111.379 19.1552L119.787 16.0735C122.564 15.0557 125.447 17.2997 125.143 20.2416L124.219 29.1491C123.971 31.5416 125.876 33.6102 128.28 33.5607L137.234 33.3762C140.191 33.3152 142.189 36.3737 140.945 39.0572L137.18 47.1823C136.169 49.3646 137.298 51.9395 139.588 52.6735L148.117 55.4061C150.933 56.3086 151.83 59.8502 149.783 61.9845L143.583 68.4468C141.918 70.1824 142.15 72.9845 144.078 74.4224L151.257 79.7761C153.628 81.5443 153.326 85.1852 150.696 86.539L142.734 90.638C140.596 91.739 139.906 94.4647 141.262 96.4507L146.314 103.845C147.982 106.287 146.515 109.633 143.588 110.06L134.726 111.351C132.346 111.698 130.808 114.052 131.447 116.371L133.823 125.005C134.608 127.857 132.134 130.545 129.227 129.998L120.427 128.342C118.063 127.898 115.844 129.625 115.695 132.025L115.139 140.963C114.956 143.915 111.743 145.654 109.171 144.193L101.385 139.769C99.2933 138.581 96.6339 139.494 95.7133 141.716L92.2858 149.99C91.1538 152.722 87.5502 153.324 85.5923 151.107L79.6641 144.395C78.0719 142.592 75.2601 142.592 73.6679 144.395L67.7397 151.107C65.7818 153.324 62.1783 152.722 61.0462 149.99L57.6187 141.716C56.6981 139.494 54.0387 138.581 51.9474 139.769L44.161 144.193C41.5893 145.654 38.3763 143.915 38.1928 140.963L37.6373 132.025C37.4881 129.625 35.2693 127.898 32.9055 128.342L24.1046 129.998C21.1979 130.545 18.7236 127.857 19.5086 125.005L21.8853 116.371C22.5237 114.052 20.9858 111.698 18.6057 111.351L9.74413 110.06C6.81736 109.633 5.34983 106.287 7.01821 103.845L12.0697 96.4507C13.4264 94.4647 12.7362 91.739 10.5977 90.638L2.63565 86.539C0.00598788 85.1852 -0.295701 81.5443 2.07527 79.7761L9.25405 74.4224C11.1822 72.9845 11.4143 70.1824 9.74921 68.4467L3.54952 61.9845C1.50192 59.8502 2.39877 56.3086 5.2154 55.4061L13.7436 52.6735C16.0341 51.9395 17.1635 49.3646 16.1522 47.1823L12.3867 39.0572C11.143 36.3737 13.1413 33.3152 16.0983 33.3762L25.0517 33.5607C27.4564 33.6102 29.3607 31.5416 29.1128 29.1491L28.1895 20.2416C27.8846 17.2997 30.7676 15.0557 33.5447 16.0735L41.953 19.1552C44.2113 19.9829 46.6842 18.6446 47.2265 16.3013L49.2455 7.57663C49.9124 4.69509 53.3678 3.50885 55.6639 5.37321L62.616 11.0181C64.4833 12.5342 67.2567 12.0714 68.5304 10.0311L73.273 2.43477Z" fill="#EF4444"/>
</svg>
